<svg width="17" height="17" viewBox="0 0 17 17" fill="none" xmlns="http://www.w3.org/2000/svg">
<g clip-path="url(#clip0_520_644)">
<path d="M6.21415 10.8883H2.21415C1.91104 10.8883 1.62035 10.7678 1.40602 10.5535C1.1917 10.3392 1.07129 10.0485 1.07129 9.7454V1.7454C1.07129 1.44229 1.1917 1.1516 1.40602 0.937274C1.62035 0.722947 1.91104 0.602539 2.21415 0.602539H13.6427C13.9458 0.602539 14.2365 0.722947 14.4508 0.937274C14.6651 1.1516 14.7856 1.44229 14.7856 1.7454V6.31682" stroke="white" stroke-linecap="round" stroke-linejoin="round"/>
<path d="M1.07129 2.04248L7.92843 6.88819L14.7856 2.04248" stroke="white" stroke-linecap="round" stroke-linejoin="round"/>
<path d="M11.9284 14.3168C13.5064 14.3168 14.7856 13.0376 14.7856 11.4597C14.7856 9.88173 13.5064 8.60254 11.9284 8.60254C10.3505 8.60254 9.07129 9.88173 9.07129 11.4597C9.07129 13.0376 10.3505 14.3168 11.9284 14.3168Z" stroke="white" stroke-linecap="round" stroke-linejoin="round"/>
<path d="M15.9283 15.4596L13.9512 13.4824" stroke="white" stroke-linecap="round" stroke-linejoin="round"/>
</g>
<defs>
<clipPath id="clip0_520_644">
<rect width="16" height="16" fill="white" transform="translate(0.5 0.03125)"/>
</clipPath>
</defs>
</svg>
